M48
; DRILL file KiCad 10.0.2 date 2026-05-22T20:02:25
; FORMAT={-:-/ absolute / metric / decimal}
; #@! TF.CreationDate,2026-05-22T20:02:25+05:30
; #@! TF.GenerationSoftware,Kicad,Pcbnew,10.0.2
; #@! TF.FileFunction,Plated,1,2,PTH
FMAT,2
METRIC
; #@! TA.AperFunction,Plated,PTH,ViaDrill
T1C0.300
; #@! TA.AperFunction,Plated,PTH,ComponentDrill
T2C0.600
; #@! TA.AperFunction,Plated,PTH,ComponentDrill
T3C0.800
; #@! TA.AperFunction,Plated,PTH,ComponentDrill
T4C1.000
; #@! TA.AperFunction,Plated,PTH,ComponentDrill
T5C1.100
%
G90
G05
T1
X178.5Y-93.0
X193.25Y-63.292
X198.781Y-77.356
X200.811Y-77.198
X202.089Y-103.959
X207.254Y-93.746
T3
X180.5Y-79.5
X181.0Y-72.5
X182.5Y-59.0
X182.5Y-64.0
X182.5Y-89.0
X182.5Y-94.0
X183.5Y-110.42
X183.5Y-115.3
X184.0Y-122.5
X184.975Y-67.025
X185.5Y-79.5
X185.69Y-84.0
X186.0Y-72.5
X186.045Y-90.5
X188.045Y-90.5
X189.0Y-122.5
X189.5Y-96.5
X189.5Y-101.5
X189.5Y-104.0
X189.5Y-109.0
X189.5Y-113.0
X189.5Y-118.0
X190.475Y-73.025
X190.475Y-77.905
X192.595Y-67.025
X193.31Y-84.0
X195.88Y-88.1
X195.88Y-90.64
X195.88Y-93.18
X195.88Y-95.72
X195.88Y-98.26
X195.88Y-100.8
X195.88Y-103.34
X195.88Y-105.88
X195.88Y-108.42
X195.88Y-110.96
X195.88Y-113.5
X195.88Y-116.04
X195.88Y-118.58
X195.88Y-121.12
X197.5Y-83.5
X202.5Y-83.5
X203.5Y-88.1
X203.5Y-90.64
X203.5Y-93.18
X203.5Y-95.72
X203.5Y-98.26
X203.5Y-100.8
X203.5Y-103.34
X203.5Y-105.88
X203.5Y-108.42
X203.5Y-110.96
X203.5Y-113.5
X203.5Y-116.04
X203.5Y-118.58
X203.5Y-121.12
T4
X176.5Y-92.3
X176.5Y-94.84
X176.5Y-97.38
X176.5Y-99.92
X176.5Y-102.46
X176.5Y-105.0
X176.5Y-110.5
X176.5Y-113.04
X176.5Y-115.58
X176.5Y-118.12
X176.5Y-120.66
X176.5Y-123.2
X209.5Y-90.6
X209.5Y-93.14
X209.5Y-95.68
X209.5Y-98.22
X209.5Y-100.76
X209.5Y-103.3
X209.5Y-105.84
X209.5Y-108.38
X209.5Y-110.92
X209.5Y-113.46
X209.5Y-116.0
X209.5Y-118.54
X209.5Y-121.08
X209.5Y-123.62
T5
X182.5Y-98.3
X182.5Y-100.84
X182.5Y-103.38
X199.75Y-56.25
X199.75Y-60.75
X206.25Y-56.25
X206.25Y-60.75
T2
G00X187.68Y-56.25
M15
G01X187.68Y-55.65
M16
G05
G00X187.68Y-60.68
M15
G01X187.68Y-59.58
M16
G05
G00X196.32Y-56.25
M15
G01X196.32Y-55.65
M16
G05
G00X196.32Y-60.68
M15
G01X196.32Y-59.58
M16
G05
M30
