%TF.GenerationSoftware,KiCad,Pcbnew,10.0.2*%
%TF.CreationDate,2026-05-22T20:02:15+05:30*%
%TF.ProjectId,Devboard,44657662-6f61-4726-942e-6b696361645f,rev?*%
%TF.SameCoordinates,Original*%
%TF.FileFunction,Copper,L2,Bot*%
%TF.FilePolarity,Positive*%
%FSLAX46Y46*%
G04 Gerber Fmt 4.6, Leading zero omitted, Abs format (unit mm)*
G04 Created by KiCad (PCBNEW 10.0.2) date 2026-05-22 20:02:15*
%MOMM*%
%LPD*%
G01*
G04 APERTURE LIST*
G04 Aperture macros list*
%AMRoundRect*
0 Rectangle with rounded corners*
0 $1 Rounding radius*
0 $2 $3 $4 $5 $6 $7 $8 $9 X,Y pos of 4 corners*
0 Add a 4 corners polygon primitive as box body*
4,1,4,$2,$3,$4,$5,$6,$7,$8,$9,$2,$3,0*
0 Add four circle primitives for the rounded corners*
1,1,$1+$1,$2,$3*
1,1,$1+$1,$4,$5*
1,1,$1+$1,$6,$7*
1,1,$1+$1,$8,$9*
0 Add four rect primitives between the rounded corners*
20,1,$1+$1,$2,$3,$4,$5,0*
20,1,$1+$1,$4,$5,$6,$7,0*
20,1,$1+$1,$6,$7,$8,$9,0*
20,1,$1+$1,$8,$9,$2,$3,0*%
G04 Aperture macros list end*
%TA.AperFunction,ComponentPad*%
%ADD10C,1.600000*%
%TD*%
%TA.AperFunction,ComponentPad*%
%ADD11C,2.000000*%
%TD*%
%TA.AperFunction,ComponentPad*%
%ADD12RoundRect,0.250000X0.550000X0.550000X-0.550000X0.550000X-0.550000X-0.550000X0.550000X-0.550000X0*%
%TD*%
%TA.AperFunction,ComponentPad*%
%ADD13C,1.500000*%
%TD*%
%TA.AperFunction,ComponentPad*%
%ADD14R,1.700000X1.700000*%
%TD*%
%TA.AperFunction,ComponentPad*%
%ADD15C,1.700000*%
%TD*%
%TA.AperFunction,ComponentPad*%
%ADD16O,1.000000X2.100000*%
%TD*%
%TA.AperFunction,ComponentPad*%
%ADD17O,1.000000X1.600000*%
%TD*%
%TA.AperFunction,ComponentPad*%
%ADD18RoundRect,0.250000X-0.550000X-0.550000X0.550000X-0.550000X0.550000X0.550000X-0.550000X0.550000X0*%
%TD*%
%TA.AperFunction,ComponentPad*%
%ADD19R,2.000000X1.905000*%
%TD*%
%TA.AperFunction,ComponentPad*%
%ADD20O,2.000000X1.905000*%
%TD*%
%TA.AperFunction,ViaPad*%
%ADD21C,0.600000*%
%TD*%
%TA.AperFunction,Conductor*%
%ADD22C,0.200000*%
%TD*%
G04 APERTURE END LIST*
D10*
%TO.P,R1,1*%
%TO.N,Net-(P1-CC)*%
X192595000Y-67025000D03*
%TO.P,R1,2*%
%TO.N,GND*%
X184975000Y-67025000D03*
%TD*%
D11*
%TO.P,SW1,1,1_1*%
%TO.N,GND*%
X199750000Y-56250000D03*
X206250000Y-56250000D03*
%TO.P,SW1,2,2_2*%
%TO.N,/RESET*%
X199750000Y-60750000D03*
X206250000Y-60750000D03*
%TD*%
D10*
%TO.P,R2,1*%
%TO.N,+5V*%
X185690000Y-84000000D03*
%TO.P,R2,2*%
%TO.N,/RESET*%
X193310000Y-84000000D03*
%TD*%
%TO.P,C9,1*%
%TO.N,+5V*%
X182500000Y-59000000D03*
%TO.P,C9,2*%
%TO.N,GND*%
X182500000Y-64000000D03*
%TD*%
%TO.P,C2,1*%
%TO.N,Net-(U2-XO)*%
X185500000Y-79500000D03*
%TO.P,C2,2*%
%TO.N,GND*%
X180500000Y-79500000D03*
%TD*%
%TO.P,C8,1*%
%TO.N,Net-(U1-XTAL1{slash}PB6)*%
X184000000Y-122500000D03*
%TO.P,C8,2*%
%TO.N,GND*%
X189000000Y-122500000D03*
%TD*%
D12*
%TO.P,U1,1,~{RESET}/PC6_1*%
%TO.N,/RESET*%
X203500000Y-121120000D03*
D10*
%TO.P,U1,2,PD0_2*%
%TO.N,/TX*%
X203500000Y-118580000D03*
%TO.P,U1,3,PD1_3*%
%TO.N,/RX*%
X203500000Y-116040000D03*
%TO.P,U1,4,PD2_4*%
%TO.N,Net-(J1-Pin_3)*%
X203500000Y-113500000D03*
%TO.P,U1,5,PD3_5*%
%TO.N,Net-(J1-Pin_4)*%
X203500000Y-110960000D03*
%TO.P,U1,6,PD4_6*%
%TO.N,Net-(J1-Pin_5)*%
X203500000Y-108420000D03*
%TO.P,U1,7,VCC_7*%
%TO.N,+5V*%
X203500000Y-105880000D03*
%TO.P,U1,8,GND_8*%
%TO.N,GND*%
X203500000Y-103340000D03*
%TO.P,U1,9,XTAL1/PB6_9*%
%TO.N,Net-(U1-XTAL1{slash}PB6)*%
X203500000Y-100800000D03*
%TO.P,U1,10,XTAL2/PB7_10*%
%TO.N,Net-(U1-XTAL2{slash}PB7)*%
X203500000Y-98260000D03*
%TO.P,U1,11,PD5_11*%
%TO.N,Net-(J1-Pin_6)*%
X203500000Y-95720000D03*
%TO.P,U1,12,PD6_12*%
%TO.N,Net-(J1-Pin_7)*%
X203500000Y-93180000D03*
%TO.P,U1,13,PD7_13*%
%TO.N,Net-(J1-Pin_8)*%
X203500000Y-90640000D03*
%TO.P,U1,14,PB0_14*%
%TO.N,Net-(J1-Pin_9)*%
X203500000Y-88100000D03*
%TO.P,U1,15,PB1_15*%
%TO.N,Net-(J1-Pin_10)*%
X195880000Y-88100000D03*
%TO.P,U1,16,PB2_16*%
%TO.N,Net-(J1-Pin_11)*%
X195880000Y-90640000D03*
%TO.P,U1,17,PB3_17*%
%TO.N,Net-(J1-Pin_12)*%
X195880000Y-93180000D03*
%TO.P,U1,18,PB4_18*%
%TO.N,Net-(J1-Pin_13)*%
X195880000Y-95720000D03*
%TO.P,U1,19,PB5_19*%
%TO.N,Net-(J1-Pin_14)*%
X195880000Y-98260000D03*
%TO.P,U1,20,AVCC_20*%
%TO.N,+5V*%
X195880000Y-100800000D03*
%TO.P,U1,21,AREF_21*%
X195880000Y-103340000D03*
%TO.P,U1,22,GND_22*%
%TO.N,GND*%
X195880000Y-105880000D03*
%TO.P,U1,23,PC0_23*%
%TO.N,Net-(J2-Pin_1)*%
X195880000Y-108420000D03*
%TO.P,U1,24,PC1_24*%
%TO.N,Net-(J2-Pin_2)*%
X195880000Y-110960000D03*
%TO.P,U1,25,PC2_25*%
%TO.N,Net-(J2-Pin_3)*%
X195880000Y-113500000D03*
%TO.P,U1,26,PC3_26*%
%TO.N,Net-(J2-Pin_4)*%
X195880000Y-116040000D03*
%TO.P,U1,27,PC4_27*%
%TO.N,Net-(J2-Pin_5)*%
X195880000Y-118580000D03*
%TO.P,U1,28,PC5_28*%
%TO.N,Net-(J2-Pin_6)*%
X195880000Y-121120000D03*
%TD*%
%TO.P,C3,1*%
%TO.N,+3.3V*%
X182500000Y-89000000D03*
%TO.P,C3,2*%
%TO.N,GND*%
X182500000Y-94000000D03*
%TD*%
D13*
%TO.P,Y1,1,1_1*%
%TO.N,Net-(U2-XI)*%
X190475000Y-73025000D03*
%TO.P,Y1,2,2_2*%
%TO.N,Net-(U2-XO)*%
X190475000Y-77905000D03*
%TD*%
D10*
%TO.P,C14,1*%
%TO.N,+5V*%
X189500000Y-109000000D03*
%TO.P,C14,2*%
%TO.N,GND*%
X189500000Y-104000000D03*
%TD*%
D13*
%TO.P,Y2,1,1_1*%
%TO.N,Net-(U1-XTAL1{slash}PB6)*%
X183500000Y-115300000D03*
%TO.P,Y2,2,2_2*%
%TO.N,Net-(U1-XTAL2{slash}PB7)*%
X183500000Y-110420000D03*
%TD*%
D10*
%TO.P,C6,1*%
%TO.N,/RESET*%
X197500000Y-83500000D03*
%TO.P,C6,2*%
%TO.N,Net-(U2-~{DTR})*%
X202500000Y-83500000D03*
%TD*%
D14*
%TO.P,J1,1,Pin_1_1*%
%TO.N,/TX*%
X209500000Y-123620000D03*
D15*
%TO.P,J1,2,Pin_2_2*%
%TO.N,/RX*%
X209500000Y-121080000D03*
%TO.P,J1,3,Pin_3_3*%
%TO.N,Net-(J1-Pin_3)*%
X209500000Y-118540000D03*
%TO.P,J1,4,Pin_4_4*%
%TO.N,Net-(J1-Pin_4)*%
X209500000Y-116000000D03*
%TO.P,J1,5,Pin_5_5*%
%TO.N,Net-(J1-Pin_5)*%
X209500000Y-113460000D03*
%TO.P,J1,6,Pin_6_6*%
%TO.N,Net-(J1-Pin_6)*%
X209500000Y-110920000D03*
%TO.P,J1,7,Pin_7_7*%
%TO.N,Net-(J1-Pin_7)*%
X209500000Y-108380000D03*
%TO.P,J1,8,Pin_8_8*%
%TO.N,Net-(J1-Pin_8)*%
X209500000Y-105840000D03*
%TO.P,J1,9,Pin_9_9*%
%TO.N,Net-(J1-Pin_9)*%
X209500000Y-103300000D03*
%TO.P,J1,10,Pin_10_10*%
%TO.N,Net-(J1-Pin_10)*%
X209500000Y-100760000D03*
%TO.P,J1,11,Pin_11_11*%
%TO.N,Net-(J1-Pin_11)*%
X209500000Y-98220000D03*
%TO.P,J1,12,Pin_12_12*%
%TO.N,Net-(J1-Pin_12)*%
X209500000Y-95680000D03*
%TO.P,J1,13,Pin_13_13*%
%TO.N,Net-(J1-Pin_13)*%
X209500000Y-93140000D03*
%TO.P,J1,14,Pin_14_14*%
%TO.N,Net-(J1-Pin_14)*%
X209500000Y-90600000D03*
%TD*%
D16*
%TO.P,P1,SH,SHIELD_SH*%
%TO.N,GND*%
X196320000Y-60130000D03*
D17*
X196320000Y-55950000D03*
D16*
X187680000Y-60130000D03*
D17*
X187680000Y-55950000D03*
%TD*%
D18*
%TO.P,C15,1*%
%TO.N,+5V*%
X186044900Y-90500000D03*
D10*
%TO.P,C15,2*%
%TO.N,GND*%
X188044900Y-90500000D03*
%TD*%
D14*
%TO.P,J2,1,Pin_1_1*%
%TO.N,Net-(J2-Pin_1)*%
X176500000Y-110500000D03*
D15*
%TO.P,J2,2,Pin_2_2*%
%TO.N,Net-(J2-Pin_2)*%
X176500000Y-113040000D03*
%TO.P,J2,3,Pin_3_3*%
%TO.N,Net-(J2-Pin_3)*%
X176500000Y-115580000D03*
%TO.P,J2,4,Pin_4_4*%
%TO.N,Net-(J2-Pin_4)*%
X176500000Y-118120000D03*
%TO.P,J2,5,Pin_5_5*%
%TO.N,Net-(J2-Pin_5)*%
X176500000Y-120660000D03*
%TO.P,J2,6,Pin_6_6*%
%TO.N,Net-(J2-Pin_6)*%
X176500000Y-123200000D03*
%TD*%
D10*
%TO.P,C7,1*%
%TO.N,Net-(U1-XTAL2{slash}PB7)*%
X189500000Y-113000000D03*
%TO.P,C7,2*%
%TO.N,GND*%
X189500000Y-118000000D03*
%TD*%
D14*
%TO.P,J3,1,Pin_1_1*%
%TO.N,GND*%
X176500000Y-105000000D03*
D15*
%TO.P,J3,2,Pin_2_2*%
X176500000Y-102460000D03*
%TO.P,J3,3,Pin_3_3*%
%TO.N,+5V*%
X176500000Y-99920000D03*
%TO.P,J3,4,Pin_4_4*%
X176500000Y-97380000D03*
%TO.P,J3,5,Pin_5_5*%
%TO.N,+3.3V*%
X176500000Y-94840000D03*
%TO.P,J3,6,Pin_6_6*%
%TO.N,VCC*%
X176500000Y-92300000D03*
%TD*%
D10*
%TO.P,C1,1*%
%TO.N,Net-(U2-XI)*%
X181000000Y-72500000D03*
%TO.P,C1,2*%
%TO.N,GND*%
X186000000Y-72500000D03*
%TD*%
%TO.P,C13,1*%
%TO.N,VCC*%
X189500000Y-96500000D03*
%TO.P,C13,2*%
%TO.N,GND*%
X189500000Y-101500000D03*
%TD*%
D19*
%TO.P,U3,1,IN_1*%
%TO.N,VCC*%
X182500000Y-98300000D03*
D20*
%TO.P,U3,2,GND_2*%
%TO.N,GND*%
X182500000Y-100840000D03*
%TO.P,U3,3,OUT_3*%
%TO.N,+5V*%
X182500000Y-103380000D03*
%TD*%
D21*
%TO.N,Net-(P1-CC)*%
X193250000Y-63291800D03*
%TO.N,Net-(U2-XO)*%
X198781000Y-77355600D03*
%TO.N,Net-(U1-XTAL2{slash}PB7)*%
X202089000Y-103959000D03*
%TO.N,Net-(J1-Pin_12)*%
X207254000Y-93746000D03*
%TO.N,+3.3V*%
X200811000Y-77197900D03*
X178500000Y-93000000D03*
%TD*%
%TO.N,Net-(P1-CC)*%
D22*
X192595000Y-63946800D02*
X193250000Y-63291800D01*
X192595000Y-67025000D02*
X192595000Y-63946800D01*
X192595000Y-63946800D02*
X193250000Y-63291800D01*
%TO.N,GND*%
X198420000Y-103340000D02*
X195880000Y-105880000D01*
X187680000Y-61481700D02*
X185018000Y-61481700D01*
X206250000Y-56250000D02*
X199750000Y-56250000D01*
X199750000Y-56250000D02*
X198948000Y-57051700D01*
X182500000Y-100840000D02*
X188840000Y-100840000D01*
X185018000Y-61481700D02*
X182500000Y-64000000D01*
X187680000Y-60130000D02*
X187680000Y-61481700D01*
X187680000Y-61481700D02*
X185018000Y-61481700D01*
X198948000Y-57051700D02*
X196320000Y-57051700D01*
X186000000Y-72500000D02*
X184975000Y-71475000D01*
X188840000Y-100840000D02*
X189500000Y-101500000D01*
X184975000Y-71475000D02*
X184975000Y-67025000D01*
X187680000Y-57051700D02*
X196320000Y-57051700D01*
X188500000Y-105000000D02*
X189500000Y-104000000D01*
X203500000Y-103340000D02*
X198420000Y-103340000D01*
X188044900Y-90500000D02*
X188045000Y-90500000D01*
X184975000Y-71475000D02*
X184975000Y-67025000D01*
X188840000Y-100840000D02*
X189500000Y-101500000D01*
X196320000Y-57051700D02*
X187680000Y-57051700D01*
X185018000Y-61481700D02*
X182500000Y-64000000D01*
X198420000Y-103340000D02*
X195880000Y-105880000D01*
X195880000Y-105880000D02*
X194000000Y-104000000D01*
X184975000Y-66475000D02*
X184975000Y-67025000D01*
X184975000Y-66475000D02*
X184975000Y-67025000D01*
X196320000Y-55950000D02*
X196320000Y-57051700D01*
X188500000Y-105000000D02*
X189500000Y-104000000D01*
X194000000Y-104000000D02*
X189500000Y-104000000D01*
X194000000Y-104000000D02*
X189500000Y-104000000D01*
X184545000Y-94000000D02*
X182500000Y-94000000D01*
X187680000Y-55950000D02*
X187680000Y-57051700D01*
X176500000Y-105000000D02*
X188500000Y-105000000D01*
X198948000Y-57051700D02*
X196320000Y-57051700D01*
X182500000Y-64000000D02*
X184975000Y-66475000D01*
X188045000Y-90500000D02*
X184545000Y-94000000D01*
X184545000Y-94000000D02*
X182500000Y-94000000D01*
%TO.N,/RESET*%
X197500000Y-83500000D02*
X201414000Y-79586000D01*
X193810000Y-83500000D02*
X193310000Y-84000000D01*
X197500000Y-83500000D02*
X193810000Y-83500000D01*
X201414000Y-79586000D02*
X201414000Y-60750000D01*
X206250000Y-60750000D02*
X199750000Y-60750000D01*
X201414000Y-79586000D02*
X201414000Y-60750000D01*
%TO.N,+5V*%
X183802000Y-103380000D02*
X184321000Y-102860000D01*
X204602000Y-102806000D02*
X203866000Y-102070000D01*
X197150000Y-102070000D02*
X195880000Y-100800000D01*
X203500000Y-105880000D02*
X204602000Y-104778000D01*
X203866000Y-102070000D02*
X197150000Y-102070000D01*
X197150000Y-102070000D02*
X195880000Y-100800000D01*
X204602000Y-104778000D02*
X204602000Y-102806000D01*
X182500000Y-103380000D02*
X183802000Y-103380000D01*
X195400000Y-102860000D02*
X195880000Y-103340000D01*
X195400000Y-102860000D02*
X195880000Y-103340000D01*
X179960000Y-103380000D02*
X176500000Y-99920000D01*
X183802000Y-103380000D02*
X184321000Y-102860000D01*
X204602000Y-104778000D02*
X204602000Y-102806000D01*
X182500000Y-103380000D02*
X179960000Y-103380000D01*
X204602000Y-102806000D02*
X203866000Y-102070000D01*
X179960000Y-103380000D02*
X176500000Y-99920000D01*
X184321000Y-102860000D02*
X195400000Y-102860000D01*
X184321000Y-102860000D02*
X195400000Y-102860000D01*
X203866000Y-102070000D02*
X197150000Y-102070000D01*
%TO.N,Net-(U2-XO)*%
X187095000Y-77905000D02*
X185500000Y-79500000D01*
X190475000Y-77905000D02*
X187095000Y-77905000D01*
X191024000Y-77355600D02*
X190475000Y-77905000D01*
X187095000Y-77905000D02*
X185500000Y-79500000D01*
X191024000Y-77355600D02*
X190475000Y-77905000D01*
X198781000Y-77355600D02*
X191024000Y-77355600D01*
%TO.N,Net-(U1-XTAL1{slash}PB6)*%
X197902000Y-112428000D02*
X197902000Y-118122000D01*
X194592000Y-120009000D02*
X193513000Y-121088000D01*
X197902000Y-112428000D02*
X197902000Y-118122000D01*
X205028000Y-105915000D02*
X203793000Y-107150000D01*
X203793000Y-107150000D02*
X203180000Y-107150000D01*
X203180000Y-107150000D02*
X197902000Y-112428000D01*
X194592000Y-120009000D02*
X193513000Y-121088000D01*
X193513000Y-121088000D02*
X185412000Y-121088000D01*
X197902000Y-118122000D02*
X196015000Y-120009000D01*
X185412000Y-121088000D02*
X184000000Y-122500000D01*
X185412000Y-121088000D02*
X184000000Y-122500000D01*
X203180000Y-107150000D02*
X197902000Y-112428000D01*
X196015000Y-120009000D02*
X194592000Y-120009000D01*
X203500000Y-100800000D02*
X205028000Y-102328000D01*
X203793000Y-107150000D02*
X203180000Y-107150000D01*
X205028000Y-102328000D02*
X205028000Y-105915000D01*
X205028000Y-102328000D02*
X205028000Y-105915000D01*
X196015000Y-120009000D02*
X194592000Y-120009000D01*
X205028000Y-105915000D02*
X203793000Y-107150000D01*
X193513000Y-121088000D02*
X185412000Y-121088000D01*
X197902000Y-118122000D02*
X196015000Y-120009000D01*
%TO.N,/TX*%
X208348000Y-123620000D02*
X208348000Y-123428000D01*
X209500000Y-123620000D02*
X208348000Y-123620000D01*
X208348000Y-123428000D02*
X203500000Y-118580000D01*
X208348000Y-123620000D02*
X208348000Y-123428000D01*
X208348000Y-123428000D02*
X203500000Y-118580000D01*
%TO.N,/RX*%
X204460000Y-116040000D02*
X203500000Y-116040000D01*
X204460000Y-116040000D02*
X203500000Y-116040000D01*
X209500000Y-121080000D02*
X204460000Y-116040000D01*
%TO.N,Net-(J1-Pin_3)*%
X204460000Y-113500000D02*
X203500000Y-113500000D01*
X204460000Y-113500000D02*
X203500000Y-113500000D01*
X209500000Y-118540000D02*
X204460000Y-113500000D01*
%TO.N,Net-(J1-Pin_4)*%
X209500000Y-116000000D02*
X204460000Y-110960000D01*
X204460000Y-110960000D02*
X203500000Y-110960000D01*
X204460000Y-110960000D02*
X203500000Y-110960000D01*
%TO.N,Net-(J1-Pin_5)*%
X204460000Y-108420000D02*
X203500000Y-108420000D01*
X209500000Y-113460000D02*
X204460000Y-108420000D01*
X204460000Y-108420000D02*
X203500000Y-108420000D01*
%TO.N,Net-(U1-XTAL2{slash}PB7)*%
X189500000Y-113000000D02*
X186080000Y-113000000D01*
X192952000Y-109548000D02*
X189500000Y-113000000D01*
X202089000Y-103959000D02*
X196500000Y-109548000D01*
X192952000Y-109548000D02*
X189500000Y-113000000D01*
X196500000Y-109548000D02*
X192952000Y-109548000D01*
X186080000Y-113000000D02*
X183500000Y-110420000D01*
X196500000Y-109548000D02*
X192952000Y-109548000D01*
X186080000Y-113000000D02*
X183500000Y-110420000D01*
%TO.N,Net-(J1-Pin_10)*%
X193953000Y-97892200D02*
X195450000Y-99388400D01*
X193953000Y-90026600D02*
X193953000Y-97892200D01*
X195450000Y-99388400D02*
X208128000Y-99388400D01*
X193953000Y-90026600D02*
X193953000Y-97892200D01*
X195450000Y-99388400D02*
X208128000Y-99388400D01*
X193953000Y-97892200D02*
X195450000Y-99388400D01*
X208128000Y-99388400D02*
X209500000Y-100760000D01*
X195880000Y-88100000D02*
X193953000Y-90026600D01*
X208128000Y-99388400D02*
X209500000Y-100760000D01*
%TO.N,Net-(J1-Pin_11)*%
X195402000Y-96830200D02*
X194773000Y-96201000D01*
X194773000Y-96201000D02*
X194773000Y-91747100D01*
X208110000Y-96830200D02*
X195402000Y-96830200D01*
X194773000Y-91747100D02*
X195880000Y-90640000D01*
X209500000Y-98220000D02*
X208110000Y-96830200D01*
X208110000Y-96830200D02*
X195402000Y-96830200D01*
X194773000Y-96201000D02*
X194773000Y-91747100D01*
X194773000Y-91747100D02*
X195880000Y-90640000D01*
X195402000Y-96830200D02*
X194773000Y-96201000D01*
%TO.N,Net-(J1-Pin_12)*%
X205498000Y-91990000D02*
X207254000Y-93746000D01*
X197070000Y-91990000D02*
X205498000Y-91990000D01*
X195880000Y-93180000D02*
X197070000Y-91990000D01*
X207254000Y-93746000D02*
X207500000Y-93992000D01*
%TO.N,Net-(J1-Pin_13)*%
X197208000Y-94392000D02*
X195880000Y-95720000D01*
X208248000Y-94392000D02*
X197208000Y-94392000D01*
X209500000Y-93140000D02*
X208248000Y-94392000D01*
X197208000Y-94392000D02*
X195880000Y-95720000D01*
X208248000Y-94392000D02*
X197208000Y-94392000D01*
%TO.N,Net-(J1-Pin_14)*%
X195433000Y-89524700D02*
X208425000Y-89524700D01*
X195880000Y-98260000D02*
X194366000Y-96746500D01*
X208425000Y-89524700D02*
X209500000Y-90600000D01*
X194366000Y-90590900D02*
X195433000Y-89524700D01*
X194366000Y-96746500D02*
X194366000Y-90590900D01*
X208425000Y-89524700D02*
X209500000Y-90600000D01*
X195433000Y-89524700D02*
X208425000Y-89524700D01*
X194366000Y-90590900D02*
X195433000Y-89524700D01*
X194366000Y-96746500D02*
X194366000Y-90590900D01*
%TO.N,Net-(J2-Pin_1)*%
X195312000Y-107852000D02*
X195880000Y-108420000D01*
X195312000Y-107852000D02*
X180299000Y-107852000D01*
X195880000Y-108420000D02*
X195312000Y-107852000D01*
X176500000Y-110500000D02*
X177652000Y-110500000D01*
X180299000Y-107852000D02*
X195312000Y-107852000D01*
X180299000Y-107852000D02*
X177652000Y-110500000D01*
X177652000Y-110500000D02*
X180299000Y-107852000D01*
%TO.N,Net-(J2-Pin_2)*%
X195880000Y-110960000D02*
X192700000Y-114140000D01*
X177197000Y-113737000D02*
X176500000Y-113040000D01*
X188750000Y-114140000D02*
X188346000Y-113737000D01*
X188346000Y-113737000D02*
X177197000Y-113737000D01*
X188750000Y-114140000D02*
X188346000Y-113737000D01*
X188346000Y-113737000D02*
X177197000Y-113737000D01*
X192700000Y-114140000D02*
X188750000Y-114140000D01*
X192700000Y-114140000D02*
X188750000Y-114140000D01*
X177197000Y-113737000D02*
X176500000Y-113040000D01*
%TO.N,Net-(J2-Pin_3)*%
X194788000Y-114592000D02*
X195880000Y-113500000D01*
X177840000Y-114240000D02*
X188082000Y-114240000D01*
X188082000Y-114240000D02*
X188434000Y-114592000D01*
X188082000Y-114240000D02*
X188434000Y-114592000D01*
X188434000Y-114592000D02*
X194788000Y-114592000D01*
X194788000Y-114592000D02*
X195880000Y-113500000D01*
X188434000Y-114592000D02*
X194788000Y-114592000D01*
X176500000Y-115580000D02*
X177840000Y-114240000D01*
X177840000Y-114240000D02*
X188082000Y-114240000D01*
%TO.N,Net-(J2-Pin_4)*%
X177890000Y-116730000D02*
X176500000Y-118120000D01*
X195880000Y-116040000D02*
X195190000Y-116730000D01*
X177890000Y-116730000D02*
X176500000Y-118120000D01*
X195190000Y-116730000D02*
X177890000Y-116730000D01*
X195190000Y-116730000D02*
X177890000Y-116730000D01*
%TO.N,Net-(J2-Pin_5)*%
X195880000Y-118580000D02*
X195312000Y-118580000D01*
X193232000Y-120660000D02*
X176500000Y-120660000D01*
X195312000Y-118580000D02*
X193232000Y-120660000D01*
X193232000Y-120660000D02*
X176500000Y-120660000D01*
X195312000Y-118580000D02*
X193232000Y-120660000D01*
%TO.N,Net-(J2-Pin_6)*%
X176926000Y-123626000D02*
X176500000Y-123200000D01*
X193374000Y-123626000D02*
X176926000Y-123626000D01*
X193374000Y-123626000D02*
X176926000Y-123626000D01*
X195880000Y-121120000D02*
X193374000Y-123626000D01*
X176926000Y-123626000D02*
X176500000Y-123200000D01*
%TO.N,+3.3V*%
X192062000Y-79438500D02*
X198570000Y-79438500D01*
X182500000Y-89000000D02*
X178500000Y-93000000D01*
X182500000Y-89000000D02*
X192062000Y-79438500D01*
X198570000Y-79438500D02*
X200811000Y-77197900D01*
X198570000Y-79438500D02*
X200811000Y-77197900D01*
X192062000Y-79438500D02*
X198570000Y-79438500D01*
%TO.N,Net-(U2-XI)*%
X181000000Y-72500000D02*
X182127000Y-73627200D01*
X182127000Y-73627200D02*
X189873000Y-73627200D01*
X182127000Y-73627200D02*
X189873000Y-73627200D01*
X189873000Y-73627200D02*
X190475000Y-73025000D01*
X189873000Y-73627200D02*
X190475000Y-73025000D01*
%TO.N,VCC*%
X181246000Y-97045800D02*
X182500000Y-97045800D01*
X188954000Y-97045800D02*
X189500000Y-96500000D01*
X176500000Y-92300000D02*
X181246000Y-97045800D01*
X182500000Y-97045800D02*
X188954000Y-97045800D01*
X181246000Y-97045800D02*
X182500000Y-97045800D01*
X188954000Y-97045800D02*
X189500000Y-96500000D01*
X182500000Y-98300000D02*
X182500000Y-97045800D01*
%TD*%
M02*
