%TF.GenerationSoftware,KiCad,Pcbnew,10.0.2*%
%TF.CreationDate,2026-05-22T20:02:15+05:30*%
%TF.ProjectId,Devboard,44657662-6f61-4726-942e-6b696361645f,rev?*%
%TF.SameCoordinates,Original*%
%TF.FileFunction,Legend,Top*%
%TF.FilePolarity,Positive*%
%FSLAX46Y46*%
G04 Gerber Fmt 4.6, Leading zero omitted, Abs format (unit mm)*
G04 Created by KiCad (PCBNEW 10.0.2) date 2026-05-22 20:02:15*
%MOMM*%
%LPD*%
G01*
G04 APERTURE LIST*
%ADD10C,0.100000*%
%ADD11C,0.120000*%
G04 APERTURE END LIST*
D10*
X175628637Y-89743734D02*
X175747685Y-89743734D01*
X175700066Y-89862782D02*
X175747685Y-89743734D01*
X175747685Y-89743734D02*
X175700066Y-89624687D01*
X175842923Y-89815163D02*
X175747685Y-89743734D01*
X175747685Y-89743734D02*
X175842923Y-89672306D01*
X176104828Y-89077068D02*
X176128637Y-89029449D01*
X176128637Y-89029449D02*
X176128637Y-88934211D01*
X176128637Y-88934211D02*
X176104828Y-88886592D01*
X176104828Y-88886592D02*
X176057208Y-88862783D01*
X176057208Y-88862783D02*
X176033399Y-88862783D01*
X176033399Y-88862783D02*
X175985780Y-88886592D01*
X175985780Y-88886592D02*
X175961970Y-88934211D01*
X175961970Y-88934211D02*
X175961970Y-89005640D01*
X175961970Y-89005640D02*
X175938161Y-89053259D01*
X175938161Y-89053259D02*
X175890542Y-89077068D01*
X175890542Y-89077068D02*
X175866732Y-89077068D01*
X175866732Y-89077068D02*
X175819113Y-89053259D01*
X175819113Y-89053259D02*
X175795304Y-89005640D01*
X175795304Y-89005640D02*
X175795304Y-88934211D01*
X175795304Y-88934211D02*
X175819113Y-88886592D01*
X175795304Y-88434211D02*
X176128637Y-88434211D01*
X175795304Y-88648497D02*
X176057208Y-88648497D01*
X176057208Y-88648497D02*
X176104828Y-88624687D01*
X176104828Y-88624687D02*
X176128637Y-88577068D01*
X176128637Y-88577068D02*
X176128637Y-88505640D01*
X176128637Y-88505640D02*
X176104828Y-88458021D01*
X176104828Y-88458021D02*
X176081018Y-88434211D01*
X175795304Y-88196116D02*
X176295304Y-88196116D01*
X175819113Y-88196116D02*
X175795304Y-88148497D01*
X175795304Y-88148497D02*
X175795304Y-88053259D01*
X175795304Y-88053259D02*
X175819113Y-88005640D01*
X175819113Y-88005640D02*
X175842923Y-87981830D01*
X175842923Y-87981830D02*
X175890542Y-87958021D01*
X175890542Y-87958021D02*
X176033399Y-87958021D01*
X176033399Y-87958021D02*
X176081018Y-87981830D01*
X176081018Y-87981830D02*
X176104828Y-88005640D01*
X176104828Y-88005640D02*
X176128637Y-88053259D01*
X176128637Y-88053259D02*
X176128637Y-88148497D01*
X176128637Y-88148497D02*
X176104828Y-88196116D01*
X175795304Y-87743735D02*
X176295304Y-87743735D01*
X175819113Y-87743735D02*
X175795304Y-87696116D01*
X175795304Y-87696116D02*
X175795304Y-87600878D01*
X175795304Y-87600878D02*
X175819113Y-87553259D01*
X175819113Y-87553259D02*
X175842923Y-87529449D01*
X175842923Y-87529449D02*
X175890542Y-87505640D01*
X175890542Y-87505640D02*
X176033399Y-87505640D01*
X176033399Y-87505640D02*
X176081018Y-87529449D01*
X176081018Y-87529449D02*
X176104828Y-87553259D01*
X176104828Y-87553259D02*
X176128637Y-87600878D01*
X176128637Y-87600878D02*
X176128637Y-87696116D01*
X176128637Y-87696116D02*
X176104828Y-87743735D01*
X176128637Y-87219925D02*
X176104828Y-87267544D01*
X176104828Y-87267544D02*
X176081018Y-87291354D01*
X176081018Y-87291354D02*
X176033399Y-87315163D01*
X176033399Y-87315163D02*
X175890542Y-87315163D01*
X175890542Y-87315163D02*
X175842923Y-87291354D01*
X175842923Y-87291354D02*
X175819113Y-87267544D01*
X175819113Y-87267544D02*
X175795304Y-87219925D01*
X175795304Y-87219925D02*
X175795304Y-87148497D01*
X175795304Y-87148497D02*
X175819113Y-87100878D01*
X175819113Y-87100878D02*
X175842923Y-87077068D01*
X175842923Y-87077068D02*
X175890542Y-87053259D01*
X175890542Y-87053259D02*
X176033399Y-87053259D01*
X176033399Y-87053259D02*
X176081018Y-87077068D01*
X176081018Y-87077068D02*
X176104828Y-87100878D01*
X176104828Y-87100878D02*
X176128637Y-87148497D01*
X176128637Y-87148497D02*
X176128637Y-87219925D01*
X176128637Y-86838973D02*
X175795304Y-86838973D01*
X175890542Y-86838973D02*
X175842923Y-86815163D01*
X175842923Y-86815163D02*
X175819113Y-86791354D01*
X175819113Y-86791354D02*
X175795304Y-86743735D01*
X175795304Y-86743735D02*
X175795304Y-86696116D01*
X175795304Y-86600877D02*
X175795304Y-86410401D01*
X175628637Y-86529449D02*
X176057208Y-86529449D01*
X176057208Y-86529449D02*
X176104828Y-86505639D01*
X176104828Y-86505639D02*
X176128637Y-86458020D01*
X176128637Y-86458020D02*
X176128637Y-86410401D01*
X176104828Y-86267544D02*
X176128637Y-86219925D01*
X176128637Y-86219925D02*
X176128637Y-86124687D01*
X176128637Y-86124687D02*
X176104828Y-86077068D01*
X176104828Y-86077068D02*
X176057208Y-86053259D01*
X176057208Y-86053259D02*
X176033399Y-86053259D01*
X176033399Y-86053259D02*
X175985780Y-86077068D01*
X175985780Y-86077068D02*
X175961970Y-86124687D01*
X175961970Y-86124687D02*
X175961970Y-86196116D01*
X175961970Y-86196116D02*
X175938161Y-86243735D01*
X175938161Y-86243735D02*
X175890542Y-86267544D01*
X175890542Y-86267544D02*
X175866732Y-86267544D01*
X175866732Y-86267544D02*
X175819113Y-86243735D01*
X175819113Y-86243735D02*
X175795304Y-86196116D01*
X175795304Y-86196116D02*
X175795304Y-86124687D01*
X175795304Y-86124687D02*
X175819113Y-86077068D01*
X175628637Y-85505640D02*
X175628637Y-85172307D01*
X175628637Y-85172307D02*
X176128637Y-85386592D01*
X175938161Y-84981831D02*
X175938161Y-84600879D01*
X175628637Y-84410402D02*
X175628637Y-84100878D01*
X175628637Y-84100878D02*
X175819113Y-84267545D01*
X175819113Y-84267545D02*
X175819113Y-84196116D01*
X175819113Y-84196116D02*
X175842923Y-84148497D01*
X175842923Y-84148497D02*
X175866732Y-84124688D01*
X175866732Y-84124688D02*
X175914351Y-84100878D01*
X175914351Y-84100878D02*
X176033399Y-84100878D01*
X176033399Y-84100878D02*
X176081018Y-84124688D01*
X176081018Y-84124688D02*
X176104828Y-84148497D01*
X176104828Y-84148497D02*
X176128637Y-84196116D01*
X176128637Y-84196116D02*
X176128637Y-84338973D01*
X176128637Y-84338973D02*
X176104828Y-84386592D01*
X176104828Y-84386592D02*
X176081018Y-84410402D01*
X175628637Y-83648498D02*
X175628637Y-83886593D01*
X175628637Y-83886593D02*
X175866732Y-83910402D01*
X175866732Y-83910402D02*
X175842923Y-83886593D01*
X175842923Y-83886593D02*
X175819113Y-83838974D01*
X175819113Y-83838974D02*
X175819113Y-83719926D01*
X175819113Y-83719926D02*
X175842923Y-83672307D01*
X175842923Y-83672307D02*
X175866732Y-83648498D01*
X175866732Y-83648498D02*
X175914351Y-83624688D01*
X175914351Y-83624688D02*
X176033399Y-83624688D01*
X176033399Y-83624688D02*
X176081018Y-83648498D01*
X176081018Y-83648498D02*
X176104828Y-83672307D01*
X176104828Y-83672307D02*
X176128637Y-83719926D01*
X176128637Y-83719926D02*
X176128637Y-83838974D01*
X176128637Y-83838974D02*
X176104828Y-83886593D01*
X176104828Y-83886593D02*
X176081018Y-83910402D01*
X175628637Y-83481831D02*
X176128637Y-83315165D01*
X176128637Y-83315165D02*
X175628637Y-83148498D01*
X176600276Y-88838973D02*
X176933609Y-88838973D01*
X176600276Y-89053259D02*
X176862180Y-89053259D01*
X176862180Y-89053259D02*
X176909800Y-89029449D01*
X176909800Y-89029449D02*
X176933609Y-88981830D01*
X176933609Y-88981830D02*
X176933609Y-88910402D01*
X176933609Y-88910402D02*
X176909800Y-88862783D01*
X176909800Y-88862783D02*
X176885990Y-88838973D01*
X176909800Y-88624687D02*
X176933609Y-88577068D01*
X176933609Y-88577068D02*
X176933609Y-88481830D01*
X176933609Y-88481830D02*
X176909800Y-88434211D01*
X176909800Y-88434211D02*
X176862180Y-88410402D01*
X176862180Y-88410402D02*
X176838371Y-88410402D01*
X176838371Y-88410402D02*
X176790752Y-88434211D01*
X176790752Y-88434211D02*
X176766942Y-88481830D01*
X176766942Y-88481830D02*
X176766942Y-88553259D01*
X176766942Y-88553259D02*
X176743133Y-88600878D01*
X176743133Y-88600878D02*
X176695514Y-88624687D01*
X176695514Y-88624687D02*
X176671704Y-88624687D01*
X176671704Y-88624687D02*
X176624085Y-88600878D01*
X176624085Y-88600878D02*
X176600276Y-88553259D01*
X176600276Y-88553259D02*
X176600276Y-88481830D01*
X176600276Y-88481830D02*
X176624085Y-88434211D01*
X176909800Y-88005640D02*
X176933609Y-88053259D01*
X176933609Y-88053259D02*
X176933609Y-88148497D01*
X176933609Y-88148497D02*
X176909800Y-88196116D01*
X176909800Y-88196116D02*
X176862180Y-88219925D01*
X176862180Y-88219925D02*
X176671704Y-88219925D01*
X176671704Y-88219925D02*
X176624085Y-88196116D01*
X176624085Y-88196116D02*
X176600276Y-88148497D01*
X176600276Y-88148497D02*
X176600276Y-88053259D01*
X176600276Y-88053259D02*
X176624085Y-88005640D01*
X176624085Y-88005640D02*
X176671704Y-87981830D01*
X176671704Y-87981830D02*
X176719323Y-87981830D01*
X176719323Y-87981830D02*
X176766942Y-88219925D01*
X176433609Y-87434212D02*
X176433609Y-87100879D01*
X176433609Y-87100879D02*
X176933609Y-87315164D01*
X176743133Y-86910403D02*
X176743133Y-86529451D01*
X176933609Y-86029450D02*
X176933609Y-86315164D01*
X176933609Y-86172307D02*
X176433609Y-86172307D01*
X176433609Y-86172307D02*
X176505038Y-86219926D01*
X176505038Y-86219926D02*
X176552657Y-86267545D01*
X176552657Y-86267545D02*
X176576466Y-86315164D01*
X176481228Y-85838974D02*
X176457419Y-85815165D01*
X176457419Y-85815165D02*
X176433609Y-85767546D01*
X176433609Y-85767546D02*
X176433609Y-85648498D01*
X176433609Y-85648498D02*
X176457419Y-85600879D01*
X176457419Y-85600879D02*
X176481228Y-85577070D01*
X176481228Y-85577070D02*
X176528847Y-85553260D01*
X176528847Y-85553260D02*
X176576466Y-85553260D01*
X176576466Y-85553260D02*
X176647895Y-85577070D01*
X176647895Y-85577070D02*
X176933609Y-85862784D01*
X176933609Y-85862784D02*
X176933609Y-85553260D01*
X176433609Y-85410403D02*
X176933609Y-85243737D01*
X176933609Y-85243737D02*
X176433609Y-85077070D01*
X178613408Y-91872419D02*
X178780074Y-92872419D01*
X178780074Y-92872419D02*
X178946741Y-91872419D01*
X179113407Y-92872419D02*
X179113407Y-91872419D01*
X179351502Y-92872419D02*
X179351502Y-91872419D01*
X179351502Y-91872419D02*
X179637216Y-92872419D01*
X179637216Y-92872419D02*
X179637216Y-91872419D01*
X179946741Y-91872419D02*
X179946741Y-92110514D01*
X179827693Y-92015276D02*
X179946741Y-92110514D01*
X179946741Y-92110514D02*
X180065788Y-92015276D01*
X179875312Y-92300990D02*
X179946741Y-92110514D01*
X179946741Y-92110514D02*
X180018169Y-92300990D01*
X178637217Y-94762475D02*
X178946741Y-94762475D01*
X178946741Y-94762475D02*
X178780074Y-95143427D01*
X178780074Y-95143427D02*
X178851503Y-95143427D01*
X178851503Y-95143427D02*
X178899122Y-95191046D01*
X178899122Y-95191046D02*
X178922931Y-95238665D01*
X178922931Y-95238665D02*
X178946741Y-95333903D01*
X178946741Y-95333903D02*
X178946741Y-95571998D01*
X178946741Y-95571998D02*
X178922931Y-95667236D01*
X178922931Y-95667236D02*
X178899122Y-95714856D01*
X178899122Y-95714856D02*
X178851503Y-95762475D01*
X178851503Y-95762475D02*
X178708646Y-95762475D01*
X178708646Y-95762475D02*
X178661027Y-95714856D01*
X178661027Y-95714856D02*
X178637217Y-95667236D01*
X179089598Y-94762475D02*
X179256264Y-95762475D01*
X179256264Y-95762475D02*
X179422931Y-94762475D01*
X179541978Y-94762475D02*
X179851502Y-94762475D01*
X179851502Y-94762475D02*
X179684835Y-95143427D01*
X179684835Y-95143427D02*
X179756264Y-95143427D01*
X179756264Y-95143427D02*
X179803883Y-95191046D01*
X179803883Y-95191046D02*
X179827692Y-95238665D01*
X179827692Y-95238665D02*
X179851502Y-95333903D01*
X179851502Y-95333903D02*
X179851502Y-95571998D01*
X179851502Y-95571998D02*
X179827692Y-95667236D01*
X179827692Y-95667236D02*
X179803883Y-95714856D01*
X179803883Y-95714856D02*
X179756264Y-95762475D01*
X179756264Y-95762475D02*
X179613407Y-95762475D01*
X179613407Y-95762475D02*
X179565788Y-95714856D01*
X179565788Y-95714856D02*
X179541978Y-95667236D01*
X178946741Y-102420038D02*
X178899122Y-102372419D01*
X178899122Y-102372419D02*
X178827693Y-102372419D01*
X178827693Y-102372419D02*
X178756265Y-102420038D01*
X178756265Y-102420038D02*
X178708646Y-102515276D01*
X178708646Y-102515276D02*
X178684836Y-102610514D01*
X178684836Y-102610514D02*
X178661027Y-102800990D01*
X178661027Y-102800990D02*
X178661027Y-102943847D01*
X178661027Y-102943847D02*
X178684836Y-103134323D01*
X178684836Y-103134323D02*
X178708646Y-103229561D01*
X178708646Y-103229561D02*
X178756265Y-103324800D01*
X178756265Y-103324800D02*
X178827693Y-103372419D01*
X178827693Y-103372419D02*
X178875312Y-103372419D01*
X178875312Y-103372419D02*
X178946741Y-103324800D01*
X178946741Y-103324800D02*
X178970550Y-103277180D01*
X178970550Y-103277180D02*
X178970550Y-102943847D01*
X178970550Y-102943847D02*
X178875312Y-102943847D01*
X179184836Y-103372419D02*
X179184836Y-102372419D01*
X179184836Y-102372419D02*
X179470550Y-103372419D01*
X179470550Y-103372419D02*
X179470550Y-102372419D01*
X179708646Y-103372419D02*
X179708646Y-102372419D01*
X179708646Y-102372419D02*
X179827694Y-102372419D01*
X179827694Y-102372419D02*
X179899122Y-102420038D01*
X179899122Y-102420038D02*
X179946741Y-102515276D01*
X179946741Y-102515276D02*
X179970551Y-102610514D01*
X179970551Y-102610514D02*
X179994360Y-102800990D01*
X179994360Y-102800990D02*
X179994360Y-102943847D01*
X179994360Y-102943847D02*
X179970551Y-103134323D01*
X179970551Y-103134323D02*
X179946741Y-103229561D01*
X179946741Y-103229561D02*
X179899122Y-103324800D01*
X179899122Y-103324800D02*
X179827694Y-103372419D01*
X179827694Y-103372419D02*
X179708646Y-103372419D01*
X178946741Y-104920038D02*
X178899122Y-104872419D01*
X178899122Y-104872419D02*
X178827693Y-104872419D01*
X178827693Y-104872419D02*
X178756265Y-104920038D01*
X178756265Y-104920038D02*
X178708646Y-105015276D01*
X178708646Y-105015276D02*
X178684836Y-105110514D01*
X178684836Y-105110514D02*
X178661027Y-105300990D01*
X178661027Y-105300990D02*
X178661027Y-105443847D01*
X178661027Y-105443847D02*
X178684836Y-105634323D01*
X178684836Y-105634323D02*
X178708646Y-105729561D01*
X178708646Y-105729561D02*
X178756265Y-105824800D01*
X178756265Y-105824800D02*
X178827693Y-105872419D01*
X178827693Y-105872419D02*
X178875312Y-105872419D01*
X178875312Y-105872419D02*
X178946741Y-105824800D01*
X178946741Y-105824800D02*
X178970550Y-105777180D01*
X178970550Y-105777180D02*
X178970550Y-105443847D01*
X178970550Y-105443847D02*
X178875312Y-105443847D01*
X179184836Y-105872419D02*
X179184836Y-104872419D01*
X179184836Y-104872419D02*
X179470550Y-105872419D01*
X179470550Y-105872419D02*
X179470550Y-104872419D01*
X179708646Y-105872419D02*
X179708646Y-104872419D01*
X179708646Y-104872419D02*
X179827694Y-104872419D01*
X179827694Y-104872419D02*
X179899122Y-104920038D01*
X179899122Y-104920038D02*
X179946741Y-105015276D01*
X179946741Y-105015276D02*
X179970551Y-105110514D01*
X179970551Y-105110514D02*
X179994360Y-105300990D01*
X179994360Y-105300990D02*
X179994360Y-105443847D01*
X179994360Y-105443847D02*
X179970551Y-105634323D01*
X179970551Y-105634323D02*
X179946741Y-105729561D01*
X179946741Y-105729561D02*
X179899122Y-105824800D01*
X179899122Y-105824800D02*
X179827694Y-105872419D01*
X179827694Y-105872419D02*
X179708646Y-105872419D01*
X205970550Y-121762475D02*
X205803884Y-121286284D01*
X205684836Y-121762475D02*
X205684836Y-120762475D01*
X205684836Y-120762475D02*
X205875312Y-120762475D01*
X205875312Y-120762475D02*
X205922931Y-120810094D01*
X205922931Y-120810094D02*
X205946741Y-120857713D01*
X205946741Y-120857713D02*
X205970550Y-120952951D01*
X205970550Y-120952951D02*
X205970550Y-121095808D01*
X205970550Y-121095808D02*
X205946741Y-121191046D01*
X205946741Y-121191046D02*
X205922931Y-121238665D01*
X205922931Y-121238665D02*
X205875312Y-121286284D01*
X205875312Y-121286284D02*
X205684836Y-121286284D01*
X206137217Y-120762475D02*
X206470550Y-121762475D01*
X206470550Y-120762475D02*
X206137217Y-121762475D01*
X207018169Y-120714856D02*
X206589598Y-122000570D01*
X207446741Y-121762475D02*
X207161027Y-121762475D01*
X207303884Y-121762475D02*
X207303884Y-120762475D01*
X207303884Y-120762475D02*
X207256265Y-120905332D01*
X207256265Y-120905332D02*
X207208646Y-121000570D01*
X207208646Y-121000570D02*
X207161027Y-121048189D01*
X205613408Y-123122419D02*
X205899122Y-123122419D01*
X205756265Y-124122419D02*
X205756265Y-123122419D01*
X206018169Y-123122419D02*
X206351502Y-124122419D01*
X206351502Y-123122419D02*
X206018169Y-124122419D01*
X206899121Y-123074800D02*
X206470550Y-124360514D01*
X207161026Y-123122419D02*
X207208645Y-123122419D01*
X207208645Y-123122419D02*
X207256264Y-123170038D01*
X207256264Y-123170038D02*
X207280074Y-123217657D01*
X207280074Y-123217657D02*
X207303883Y-123312895D01*
X207303883Y-123312895D02*
X207327693Y-123503371D01*
X207327693Y-123503371D02*
X207327693Y-123741466D01*
X207327693Y-123741466D02*
X207303883Y-123931942D01*
X207303883Y-123931942D02*
X207280074Y-124027180D01*
X207280074Y-124027180D02*
X207256264Y-124074800D01*
X207256264Y-124074800D02*
X207208645Y-124122419D01*
X207208645Y-124122419D02*
X207161026Y-124122419D01*
X207161026Y-124122419D02*
X207113407Y-124074800D01*
X207113407Y-124074800D02*
X207089598Y-124027180D01*
X207089598Y-124027180D02*
X207065788Y-123931942D01*
X207065788Y-123931942D02*
X207041979Y-123741466D01*
X207041979Y-123741466D02*
X207041979Y-123503371D01*
X207041979Y-123503371D02*
X207065788Y-123312895D01*
X207065788Y-123312895D02*
X207089598Y-123217657D01*
X207089598Y-123217657D02*
X207113407Y-123170038D01*
X207113407Y-123170038D02*
X207161026Y-123122419D01*
X179280074Y-96872419D02*
X178803884Y-96872419D01*
X178803884Y-96872419D02*
X178756265Y-97348609D01*
X178756265Y-97348609D02*
X178803884Y-97300990D01*
X178803884Y-97300990D02*
X178899122Y-97253371D01*
X178899122Y-97253371D02*
X179137217Y-97253371D01*
X179137217Y-97253371D02*
X179232455Y-97300990D01*
X179232455Y-97300990D02*
X179280074Y-97348609D01*
X179280074Y-97348609D02*
X179327693Y-97443847D01*
X179327693Y-97443847D02*
X179327693Y-97681942D01*
X179327693Y-97681942D02*
X179280074Y-97777180D01*
X179280074Y-97777180D02*
X179232455Y-97824800D01*
X179232455Y-97824800D02*
X179137217Y-97872419D01*
X179137217Y-97872419D02*
X178899122Y-97872419D01*
X178899122Y-97872419D02*
X178803884Y-97824800D01*
X178803884Y-97824800D02*
X178756265Y-97777180D01*
X179613408Y-96872419D02*
X179946741Y-97872419D01*
X179946741Y-97872419D02*
X180280074Y-96872419D01*
X179280074Y-99622419D02*
X178803884Y-99622419D01*
X178803884Y-99622419D02*
X178756265Y-100098609D01*
X178756265Y-100098609D02*
X178803884Y-100050990D01*
X178803884Y-100050990D02*
X178899122Y-100003371D01*
X178899122Y-100003371D02*
X179137217Y-100003371D01*
X179137217Y-100003371D02*
X179232455Y-100050990D01*
X179232455Y-100050990D02*
X179280074Y-100098609D01*
X179280074Y-100098609D02*
X179327693Y-100193847D01*
X179327693Y-100193847D02*
X179327693Y-100431942D01*
X179327693Y-100431942D02*
X179280074Y-100527180D01*
X179280074Y-100527180D02*
X179232455Y-100574800D01*
X179232455Y-100574800D02*
X179137217Y-100622419D01*
X179137217Y-100622419D02*
X178899122Y-100622419D01*
X178899122Y-100622419D02*
X178803884Y-100574800D01*
X178803884Y-100574800D02*
X178756265Y-100527180D01*
X179613408Y-99622419D02*
X179946741Y-100622419D01*
X179946741Y-100622419D02*
X180280074Y-99622419D01*
X178756265Y-111086704D02*
X179232455Y-111086704D01*
X178661027Y-111372419D02*
X178994360Y-110372419D01*
X178994360Y-110372419D02*
X179327693Y-111372419D01*
X179851503Y-110372419D02*
X179946741Y-110372419D01*
X179946741Y-110372419D02*
X180041979Y-110420038D01*
X180041979Y-110420038D02*
X180089598Y-110467657D01*
X180089598Y-110467657D02*
X180137217Y-110562895D01*
X180137217Y-110562895D02*
X180184836Y-110753371D01*
X180184836Y-110753371D02*
X180184836Y-110991466D01*
X180184836Y-110991466D02*
X180137217Y-111181942D01*
X180137217Y-111181942D02*
X180089598Y-111277180D01*
X180089598Y-111277180D02*
X180041979Y-111324800D01*
X180041979Y-111324800D02*
X179946741Y-111372419D01*
X179946741Y-111372419D02*
X179851503Y-111372419D01*
X179851503Y-111372419D02*
X179756265Y-111324800D01*
X179756265Y-111324800D02*
X179708646Y-111277180D01*
X179708646Y-111277180D02*
X179661027Y-111181942D01*
X179661027Y-111181942D02*
X179613408Y-110991466D01*
X179613408Y-110991466D02*
X179613408Y-110753371D01*
X179613408Y-110753371D02*
X179661027Y-110562895D01*
X179661027Y-110562895D02*
X179708646Y-110467657D01*
X179708646Y-110467657D02*
X179756265Y-110420038D01*
X179756265Y-110420038D02*
X179851503Y-110372419D01*
X178756265Y-113586704D02*
X179232455Y-113586704D01*
X178661027Y-113872419D02*
X178994360Y-112872419D01*
X178994360Y-112872419D02*
X179327693Y-113872419D01*
X180184836Y-113872419D02*
X179613408Y-113872419D01*
X179899122Y-113872419D02*
X179899122Y-112872419D01*
X179899122Y-112872419D02*
X179803884Y-113015276D01*
X179803884Y-113015276D02*
X179708646Y-113110514D01*
X179708646Y-113110514D02*
X179613408Y-113158133D01*
X178756265Y-116086704D02*
X179232455Y-116086704D01*
X178661027Y-116372419D02*
X178994360Y-115372419D01*
X178994360Y-115372419D02*
X179327693Y-116372419D01*
X179613408Y-115467657D02*
X179661027Y-115420038D01*
X179661027Y-115420038D02*
X179756265Y-115372419D01*
X179756265Y-115372419D02*
X179994360Y-115372419D01*
X179994360Y-115372419D02*
X180089598Y-115420038D01*
X180089598Y-115420038D02*
X180137217Y-115467657D01*
X180137217Y-115467657D02*
X180184836Y-115562895D01*
X180184836Y-115562895D02*
X180184836Y-115658133D01*
X180184836Y-115658133D02*
X180137217Y-115800990D01*
X180137217Y-115800990D02*
X179565789Y-116372419D01*
X179565789Y-116372419D02*
X180184836Y-116372419D01*
X178756265Y-118586704D02*
X179232455Y-118586704D01*
X178661027Y-118872419D02*
X178994360Y-117872419D01*
X178994360Y-117872419D02*
X179327693Y-118872419D01*
X179565789Y-117872419D02*
X180184836Y-117872419D01*
X180184836Y-117872419D02*
X179851503Y-118253371D01*
X179851503Y-118253371D02*
X179994360Y-118253371D01*
X179994360Y-118253371D02*
X180089598Y-118300990D01*
X180089598Y-118300990D02*
X180137217Y-118348609D01*
X180137217Y-118348609D02*
X180184836Y-118443847D01*
X180184836Y-118443847D02*
X180184836Y-118681942D01*
X180184836Y-118681942D02*
X180137217Y-118777180D01*
X180137217Y-118777180D02*
X180089598Y-118824800D01*
X180089598Y-118824800D02*
X179994360Y-118872419D01*
X179994360Y-118872419D02*
X179708646Y-118872419D01*
X179708646Y-118872419D02*
X179613408Y-118824800D01*
X179613408Y-118824800D02*
X179565789Y-118777180D01*
X178756265Y-121086704D02*
X179232455Y-121086704D01*
X178661027Y-121372419D02*
X178994360Y-120372419D01*
X178994360Y-120372419D02*
X179327693Y-121372419D01*
X180089598Y-120705752D02*
X180089598Y-121372419D01*
X179851503Y-120324800D02*
X179613408Y-121039085D01*
X179613408Y-121039085D02*
X180232455Y-121039085D01*
X178756265Y-123586704D02*
X179232455Y-123586704D01*
X178661027Y-123872419D02*
X178994360Y-122872419D01*
X178994360Y-122872419D02*
X179327693Y-123872419D01*
X180137217Y-122872419D02*
X179661027Y-122872419D01*
X179661027Y-122872419D02*
X179613408Y-123348609D01*
X179613408Y-123348609D02*
X179661027Y-123300990D01*
X179661027Y-123300990D02*
X179756265Y-123253371D01*
X179756265Y-123253371D02*
X179994360Y-123253371D01*
X179994360Y-123253371D02*
X180089598Y-123300990D01*
X180089598Y-123300990D02*
X180137217Y-123348609D01*
X180137217Y-123348609D02*
X180184836Y-123443847D01*
X180184836Y-123443847D02*
X180184836Y-123681942D01*
X180184836Y-123681942D02*
X180137217Y-123777180D01*
X180137217Y-123777180D02*
X180089598Y-123824800D01*
X180089598Y-123824800D02*
X179994360Y-123872419D01*
X179994360Y-123872419D02*
X179756265Y-123872419D01*
X179756265Y-123872419D02*
X179661027Y-123824800D01*
X179661027Y-123824800D02*
X179613408Y-123777180D01*
X206327693Y-91372419D02*
X205756265Y-91372419D01*
X206041979Y-91372419D02*
X206041979Y-90372419D01*
X206041979Y-90372419D02*
X205946741Y-90515276D01*
X205946741Y-90515276D02*
X205851503Y-90610514D01*
X205851503Y-90610514D02*
X205756265Y-90658133D01*
X206661027Y-90372419D02*
X207280074Y-90372419D01*
X207280074Y-90372419D02*
X206946741Y-90753371D01*
X206946741Y-90753371D02*
X207089598Y-90753371D01*
X207089598Y-90753371D02*
X207184836Y-90800990D01*
X207184836Y-90800990D02*
X207232455Y-90848609D01*
X207232455Y-90848609D02*
X207280074Y-90943847D01*
X207280074Y-90943847D02*
X207280074Y-91181942D01*
X207280074Y-91181942D02*
X207232455Y-91277180D01*
X207232455Y-91277180D02*
X207184836Y-91324800D01*
X207184836Y-91324800D02*
X207089598Y-91372419D01*
X207089598Y-91372419D02*
X206803884Y-91372419D01*
X206803884Y-91372419D02*
X206708646Y-91324800D01*
X206708646Y-91324800D02*
X206661027Y-91277180D01*
X206327693Y-93872419D02*
X205756265Y-93872419D01*
X206041979Y-93872419D02*
X206041979Y-92872419D01*
X206041979Y-92872419D02*
X205946741Y-93015276D01*
X205946741Y-93015276D02*
X205851503Y-93110514D01*
X205851503Y-93110514D02*
X205756265Y-93158133D01*
X206708646Y-92967657D02*
X206756265Y-92920038D01*
X206756265Y-92920038D02*
X206851503Y-92872419D01*
X206851503Y-92872419D02*
X207089598Y-92872419D01*
X207089598Y-92872419D02*
X207184836Y-92920038D01*
X207184836Y-92920038D02*
X207232455Y-92967657D01*
X207232455Y-92967657D02*
X207280074Y-93062895D01*
X207280074Y-93062895D02*
X207280074Y-93158133D01*
X207280074Y-93158133D02*
X207232455Y-93300990D01*
X207232455Y-93300990D02*
X206661027Y-93872419D01*
X206661027Y-93872419D02*
X207280074Y-93872419D01*
X206327693Y-96372419D02*
X205756265Y-96372419D01*
X206041979Y-96372419D02*
X206041979Y-95372419D01*
X206041979Y-95372419D02*
X205946741Y-95515276D01*
X205946741Y-95515276D02*
X205851503Y-95610514D01*
X205851503Y-95610514D02*
X205756265Y-95658133D01*
X207280074Y-96372419D02*
X206708646Y-96372419D01*
X206994360Y-96372419D02*
X206994360Y-95372419D01*
X206994360Y-95372419D02*
X206899122Y-95515276D01*
X206899122Y-95515276D02*
X206803884Y-95610514D01*
X206803884Y-95610514D02*
X206708646Y-95658133D01*
X206327693Y-98872419D02*
X205756265Y-98872419D01*
X206041979Y-98872419D02*
X206041979Y-97872419D01*
X206041979Y-97872419D02*
X205946741Y-98015276D01*
X205946741Y-98015276D02*
X205851503Y-98110514D01*
X205851503Y-98110514D02*
X205756265Y-98158133D01*
X206946741Y-97872419D02*
X207041979Y-97872419D01*
X207041979Y-97872419D02*
X207137217Y-97920038D01*
X207137217Y-97920038D02*
X207184836Y-97967657D01*
X207184836Y-97967657D02*
X207232455Y-98062895D01*
X207232455Y-98062895D02*
X207280074Y-98253371D01*
X207280074Y-98253371D02*
X207280074Y-98491466D01*
X207280074Y-98491466D02*
X207232455Y-98681942D01*
X207232455Y-98681942D02*
X207184836Y-98777180D01*
X207184836Y-98777180D02*
X207137217Y-98824800D01*
X207137217Y-98824800D02*
X207041979Y-98872419D01*
X207041979Y-98872419D02*
X206946741Y-98872419D01*
X206946741Y-98872419D02*
X206851503Y-98824800D01*
X206851503Y-98824800D02*
X206803884Y-98777180D01*
X206803884Y-98777180D02*
X206756265Y-98681942D01*
X206756265Y-98681942D02*
X206708646Y-98491466D01*
X206708646Y-98491466D02*
X206708646Y-98253371D01*
X206708646Y-98253371D02*
X206756265Y-98062895D01*
X206756265Y-98062895D02*
X206803884Y-97967657D01*
X206803884Y-97967657D02*
X206851503Y-97920038D01*
X206851503Y-97920038D02*
X206946741Y-97872419D01*
X206851503Y-101372419D02*
X207041979Y-101372419D01*
X207041979Y-101372419D02*
X207137217Y-101324800D01*
X207137217Y-101324800D02*
X207184836Y-101277180D01*
X207184836Y-101277180D02*
X207280074Y-101134323D01*
X207280074Y-101134323D02*
X207327693Y-100943847D01*
X207327693Y-100943847D02*
X207327693Y-100562895D01*
X207327693Y-100562895D02*
X207280074Y-100467657D01*
X207280074Y-100467657D02*
X207232455Y-100420038D01*
X207232455Y-100420038D02*
X207137217Y-100372419D01*
X207137217Y-100372419D02*
X206946741Y-100372419D01*
X206946741Y-100372419D02*
X206851503Y-100420038D01*
X206851503Y-100420038D02*
X206803884Y-100467657D01*
X206803884Y-100467657D02*
X206756265Y-100562895D01*
X206756265Y-100562895D02*
X206756265Y-100800990D01*
X206756265Y-100800990D02*
X206803884Y-100896228D01*
X206803884Y-100896228D02*
X206851503Y-100943847D01*
X206851503Y-100943847D02*
X206946741Y-100991466D01*
X206946741Y-100991466D02*
X207137217Y-100991466D01*
X207137217Y-100991466D02*
X207232455Y-100943847D01*
X207232455Y-100943847D02*
X207280074Y-100896228D01*
X207280074Y-100896228D02*
X207327693Y-100800990D01*
X206946741Y-103300990D02*
X206851503Y-103253371D01*
X206851503Y-103253371D02*
X206803884Y-103205752D01*
X206803884Y-103205752D02*
X206756265Y-103110514D01*
X206756265Y-103110514D02*
X206756265Y-103062895D01*
X206756265Y-103062895D02*
X206803884Y-102967657D01*
X206803884Y-102967657D02*
X206851503Y-102920038D01*
X206851503Y-102920038D02*
X206946741Y-102872419D01*
X206946741Y-102872419D02*
X207137217Y-102872419D01*
X207137217Y-102872419D02*
X207232455Y-102920038D01*
X207232455Y-102920038D02*
X207280074Y-102967657D01*
X207280074Y-102967657D02*
X207327693Y-103062895D01*
X207327693Y-103062895D02*
X207327693Y-103110514D01*
X207327693Y-103110514D02*
X207280074Y-103205752D01*
X207280074Y-103205752D02*
X207232455Y-103253371D01*
X207232455Y-103253371D02*
X207137217Y-103300990D01*
X207137217Y-103300990D02*
X206946741Y-103300990D01*
X206946741Y-103300990D02*
X206851503Y-103348609D01*
X206851503Y-103348609D02*
X206803884Y-103396228D01*
X206803884Y-103396228D02*
X206756265Y-103491466D01*
X206756265Y-103491466D02*
X206756265Y-103681942D01*
X206756265Y-103681942D02*
X206803884Y-103777180D01*
X206803884Y-103777180D02*
X206851503Y-103824800D01*
X206851503Y-103824800D02*
X206946741Y-103872419D01*
X206946741Y-103872419D02*
X207137217Y-103872419D01*
X207137217Y-103872419D02*
X207232455Y-103824800D01*
X207232455Y-103824800D02*
X207280074Y-103777180D01*
X207280074Y-103777180D02*
X207327693Y-103681942D01*
X207327693Y-103681942D02*
X207327693Y-103491466D01*
X207327693Y-103491466D02*
X207280074Y-103396228D01*
X207280074Y-103396228D02*
X207232455Y-103348609D01*
X207232455Y-103348609D02*
X207137217Y-103300990D01*
X206708646Y-105372419D02*
X207375312Y-105372419D01*
X207375312Y-105372419D02*
X206946741Y-106372419D01*
X207232455Y-107872419D02*
X207041979Y-107872419D01*
X207041979Y-107872419D02*
X206946741Y-107920038D01*
X206946741Y-107920038D02*
X206899122Y-107967657D01*
X206899122Y-107967657D02*
X206803884Y-108110514D01*
X206803884Y-108110514D02*
X206756265Y-108300990D01*
X206756265Y-108300990D02*
X206756265Y-108681942D01*
X206756265Y-108681942D02*
X206803884Y-108777180D01*
X206803884Y-108777180D02*
X206851503Y-108824800D01*
X206851503Y-108824800D02*
X206946741Y-108872419D01*
X206946741Y-108872419D02*
X207137217Y-108872419D01*
X207137217Y-108872419D02*
X207232455Y-108824800D01*
X207232455Y-108824800D02*
X207280074Y-108777180D01*
X207280074Y-108777180D02*
X207327693Y-108681942D01*
X207327693Y-108681942D02*
X207327693Y-108443847D01*
X207327693Y-108443847D02*
X207280074Y-108348609D01*
X207280074Y-108348609D02*
X207232455Y-108300990D01*
X207232455Y-108300990D02*
X207137217Y-108253371D01*
X207137217Y-108253371D02*
X206946741Y-108253371D01*
X206946741Y-108253371D02*
X206851503Y-108300990D01*
X206851503Y-108300990D02*
X206803884Y-108348609D01*
X206803884Y-108348609D02*
X206756265Y-108443847D01*
X207280074Y-110372419D02*
X206803884Y-110372419D01*
X206803884Y-110372419D02*
X206756265Y-110848609D01*
X206756265Y-110848609D02*
X206803884Y-110800990D01*
X206803884Y-110800990D02*
X206899122Y-110753371D01*
X206899122Y-110753371D02*
X207137217Y-110753371D01*
X207137217Y-110753371D02*
X207232455Y-110800990D01*
X207232455Y-110800990D02*
X207280074Y-110848609D01*
X207280074Y-110848609D02*
X207327693Y-110943847D01*
X207327693Y-110943847D02*
X207327693Y-111181942D01*
X207327693Y-111181942D02*
X207280074Y-111277180D01*
X207280074Y-111277180D02*
X207232455Y-111324800D01*
X207232455Y-111324800D02*
X207137217Y-111372419D01*
X207137217Y-111372419D02*
X206899122Y-111372419D01*
X206899122Y-111372419D02*
X206803884Y-111324800D01*
X206803884Y-111324800D02*
X206756265Y-111277180D01*
X207232455Y-113205752D02*
X207232455Y-113872419D01*
X206994360Y-112824800D02*
X206756265Y-113539085D01*
X206756265Y-113539085D02*
X207375312Y-113539085D01*
X206708646Y-115372419D02*
X207327693Y-115372419D01*
X207327693Y-115372419D02*
X206994360Y-115753371D01*
X206994360Y-115753371D02*
X207137217Y-115753371D01*
X207137217Y-115753371D02*
X207232455Y-115800990D01*
X207232455Y-115800990D02*
X207280074Y-115848609D01*
X207280074Y-115848609D02*
X207327693Y-115943847D01*
X207327693Y-115943847D02*
X207327693Y-116181942D01*
X207327693Y-116181942D02*
X207280074Y-116277180D01*
X207280074Y-116277180D02*
X207232455Y-116324800D01*
X207232455Y-116324800D02*
X207137217Y-116372419D01*
X207137217Y-116372419D02*
X206851503Y-116372419D01*
X206851503Y-116372419D02*
X206756265Y-116324800D01*
X206756265Y-116324800D02*
X206708646Y-116277180D01*
X206756265Y-117967657D02*
X206803884Y-117920038D01*
X206803884Y-117920038D02*
X206899122Y-117872419D01*
X206899122Y-117872419D02*
X207137217Y-117872419D01*
X207137217Y-117872419D02*
X207232455Y-117920038D01*
X207232455Y-117920038D02*
X207280074Y-117967657D01*
X207280074Y-117967657D02*
X207327693Y-118062895D01*
X207327693Y-118062895D02*
X207327693Y-118158133D01*
X207327693Y-118158133D02*
X207280074Y-118300990D01*
X207280074Y-118300990D02*
X206708646Y-118872419D01*
X206708646Y-118872419D02*
X207327693Y-118872419D01*
%TO.C,R1*%
D11*
X185515000Y-65655000D02*
X185515000Y-65985000D01*
X185515000Y-68395000D02*
X185515000Y-68065000D01*
X192055000Y-65655000D02*
X185515000Y-65655000D01*
X192055000Y-65985000D02*
X192055000Y-65655000D01*
X192055000Y-68065000D02*
X192055000Y-68395000D01*
X192055000Y-68395000D02*
X185515000Y-68395000D01*
%TO.C,SW1*%
X199500000Y-57750000D02*
X199500000Y-59250000D01*
X200750000Y-61750000D02*
X205250000Y-61750000D01*
X205250000Y-55250000D02*
X200750000Y-55250000D01*
X206500000Y-59250000D02*
X206500000Y-57750000D01*
%TO.C,R2*%
X186230000Y-82630000D02*
X192770000Y-82630000D01*
X186230000Y-82960000D02*
X186230000Y-82630000D01*
X186230000Y-85040000D02*
X186230000Y-85370000D01*
X186230000Y-85370000D02*
X192770000Y-85370000D01*
X192770000Y-82630000D02*
X192770000Y-82960000D01*
X192770000Y-85370000D02*
X192770000Y-85040000D01*
%TO.C,C9*%
X181130000Y-58880000D02*
X181467000Y-58880000D01*
X181130000Y-64120000D02*
X181130000Y-58880000D01*
X181467000Y-64120000D02*
X181130000Y-64120000D01*
X183533000Y-58880000D02*
X183870000Y-58880000D01*
X183870000Y-58880000D02*
X183870000Y-64120000D01*
X183870000Y-64120000D02*
X183533000Y-64120000D01*
%TO.C,C2*%
X180380000Y-78130000D02*
X185620000Y-78130000D01*
X180380000Y-78467000D02*
X180380000Y-78130000D01*
X180380000Y-80870000D02*
X180380000Y-80533000D01*
X185620000Y-78130000D02*
X185620000Y-78467000D01*
X185620000Y-80533000D02*
X185620000Y-80870000D01*
X185620000Y-80870000D02*
X180380000Y-80870000D01*
%TO.C,C8*%
X183880000Y-121130000D02*
X189120000Y-121130000D01*
X183880000Y-121467000D02*
X183880000Y-121130000D01*
X183880000Y-123870000D02*
X183880000Y-123533000D01*
X189120000Y-121130000D02*
X189120000Y-121467000D01*
X189120000Y-123533000D02*
X189120000Y-123870000D01*
X189120000Y-123870000D02*
X183880000Y-123870000D01*
%TO.C,U1*%
X197040000Y-86770000D02*
X197040000Y-122450000D01*
X197040000Y-122450000D02*
X198690000Y-122450000D01*
X200690000Y-122450000D02*
X202340000Y-122450000D01*
X202340000Y-86770000D02*
X197040000Y-86770000D01*
X202340000Y-122450000D02*
X202340000Y-86770000D01*
X198690000Y-122450000D02*
G75*
G02*
X200690000Y-122450000I1000000J0D01*
G01*
%TO.C,C3*%
X181130000Y-88880000D02*
X181467000Y-88880000D01*
X181130000Y-94120000D02*
X181130000Y-88880000D01*
X181467000Y-94120000D02*
X181130000Y-94120000D01*
X183533000Y-88880000D02*
X183870000Y-88880000D01*
X183870000Y-88880000D02*
X183870000Y-94120000D01*
X183870000Y-94120000D02*
X183533000Y-94120000D01*
%TO.C,Y1*%
X188040000Y-78590000D02*
X188040000Y-72340000D01*
X192910000Y-72340000D02*
X192910000Y-78590000D01*
X188040000Y-72340000D02*
G75*
G02*
X192910000Y-72340000I2435000J0D01*
G01*
X192910000Y-78590000D02*
G75*
G02*
X188040000Y-78590000I-2435000J0D01*
G01*
%TO.C,C14*%
X188130000Y-103880000D02*
X188467000Y-103880000D01*
X188130000Y-109120000D02*
X188130000Y-103880000D01*
X188467000Y-109120000D02*
X188130000Y-109120000D01*
X190533000Y-103880000D02*
X190870000Y-103880000D01*
X190870000Y-103880000D02*
X190870000Y-109120000D01*
X190870000Y-109120000D02*
X190533000Y-109120000D01*
%TO.C,Y2*%
X181065000Y-115985000D02*
X181065000Y-109735000D01*
X185935000Y-109735000D02*
X185935000Y-115985000D01*
X181065000Y-109735000D02*
G75*
G02*
X185935000Y-109735000I2435000J0D01*
G01*
X185935000Y-115985000D02*
G75*
G02*
X181065000Y-115985000I-2435000J0D01*
G01*
%TO.C,C6*%
X197380000Y-82130000D02*
X202620000Y-82130000D01*
X197380000Y-82467000D02*
X197380000Y-82130000D01*
X197380000Y-84870000D02*
X197380000Y-84533000D01*
X202620000Y-82130000D02*
X202620000Y-82467000D01*
X202620000Y-84533000D02*
X202620000Y-84870000D01*
X202620000Y-84870000D02*
X197380000Y-84870000D01*
%TO.C,J1*%
X208120000Y-122350000D02*
X208120000Y-89220000D01*
X210880000Y-89220000D02*
X208120000Y-89220000D01*
X210880000Y-122350000D02*
X208120000Y-122350000D01*
X210880000Y-122350000D02*
X210880000Y-89220000D01*
X210880000Y-123620000D02*
X210880000Y-125000000D01*
X210880000Y-125000000D02*
X209500000Y-125000000D01*
%TO.C,P1*%
X187300000Y-55000000D02*
X187300000Y-53100000D01*
X187300000Y-58900000D02*
X187300000Y-56900000D01*
X196700000Y-53100000D02*
X187300000Y-53100000D01*
X196700000Y-55000000D02*
X196700000Y-53100000D01*
X196700000Y-58900000D02*
X196700000Y-56900000D01*
%TO.C,C15*%
X184240125Y-89025000D02*
X184740125Y-89025000D01*
X184490125Y-88775000D02*
X184490125Y-89275000D01*
X187044900Y-87920000D02*
X187044900Y-89460000D01*
X187044900Y-91540000D02*
X187044900Y-93080000D01*
X187084900Y-87920000D02*
X187084900Y-89460000D01*
X187084900Y-91540000D02*
X187084900Y-93080000D01*
X187124900Y-87921000D02*
X187124900Y-89460000D01*
X187124900Y-91540000D02*
X187124900Y-93079000D01*
X187164900Y-87923000D02*
X187164900Y-89460000D01*
X187164900Y-91540000D02*
X187164900Y-93077000D01*
X187204900Y-87925000D02*
X187204900Y-89460000D01*
X187204900Y-91540000D02*
X187204900Y-93075000D01*
X187244900Y-87928000D02*
X187244900Y-89460000D01*
X187244900Y-91540000D02*
X187244900Y-93072000D01*
X187284900Y-87931000D02*
X187284900Y-89460000D01*
X187284900Y-91540000D02*
X187284900Y-93069000D01*
X187324900Y-87935000D02*
X187324900Y-89460000D01*
X187324900Y-91540000D02*
X187324900Y-93065000D01*
X187364900Y-87940000D02*
X187364900Y-89460000D01*
X187364900Y-91540000D02*
X187364900Y-93060000D01*
X187404900Y-87945000D02*
X187404900Y-89460000D01*
X187404900Y-91540000D02*
X187404900Y-93055000D01*
X187444900Y-87951000D02*
X187444900Y-89460000D01*
X187444900Y-91540000D02*
X187444900Y-93049000D01*
X187484900Y-87957000D02*
X187484900Y-89460000D01*
X187484900Y-91540000D02*
X187484900Y-93043000D01*
X187524900Y-87964000D02*
X187524900Y-89460000D01*
X187524900Y-91540000D02*
X187524900Y-93036000D01*
X187564900Y-87972000D02*
X187564900Y-89460000D01*
X187564900Y-91540000D02*
X187564900Y-93028000D01*
X187604900Y-87981000D02*
X187604900Y-89460000D01*
X187604900Y-91540000D02*
X187604900Y-93019000D01*
X187644900Y-87990000D02*
X187644900Y-89460000D01*
X187644900Y-91540000D02*
X187644900Y-93010000D01*
X187684900Y-87999000D02*
X187684900Y-89460000D01*
X187684900Y-91540000D02*
X187684900Y-93001000D01*
X187724900Y-88010000D02*
X187724900Y-89460000D01*
X187724900Y-91540000D02*
X187724900Y-92990000D01*
X187764900Y-88021000D02*
X187764900Y-89460000D01*
X187764900Y-91540000D02*
X187764900Y-92979000D01*
X187804900Y-88033000D02*
X187804900Y-89460000D01*
X187804900Y-91540000D02*
X187804900Y-92967000D01*
X187844900Y-88045000D02*
X187844900Y-89460000D01*
X187844900Y-91540000D02*
X187844900Y-92955000D01*
X187884900Y-88058000D02*
X187884900Y-89460000D01*
X187884900Y-91540000D02*
X187884900Y-92942000D01*
X187924900Y-88072000D02*
X187924900Y-89460000D01*
X187924900Y-91540000D02*
X187924900Y-92928000D01*
X187964900Y-88087000D02*
X187964900Y-89460000D01*
X187964900Y-91540000D02*
X187964900Y-92913000D01*
X188004900Y-88102000D02*
X188004900Y-89460000D01*
X188004900Y-91540000D02*
X188004900Y-92898000D01*
X188044900Y-88118000D02*
X188044900Y-89460000D01*
X188044900Y-91540000D02*
X188044900Y-92882000D01*
X188084900Y-88135000D02*
X188084900Y-89460000D01*
X188084900Y-91540000D02*
X188084900Y-92865000D01*
X188124900Y-88153000D02*
X188124900Y-89460000D01*
X188124900Y-91540000D02*
X188124900Y-92847000D01*
X188164900Y-88171000D02*
X188164900Y-89460000D01*
X188164900Y-91540000D02*
X188164900Y-92829000D01*
X188204900Y-88191000D02*
X188204900Y-89460000D01*
X188204900Y-91540000D02*
X188204900Y-92809000D01*
X188244900Y-88211000D02*
X188244900Y-89460000D01*
X188244900Y-91540000D02*
X188244900Y-92789000D01*
X188284900Y-88232000D02*
X188284900Y-89460000D01*
X188284900Y-91540000D02*
X188284900Y-92768000D01*
X188324900Y-88254000D02*
X188324900Y-89460000D01*
X188324900Y-91540000D02*
X188324900Y-92746000D01*
X188364900Y-88277000D02*
X188364900Y-89460000D01*
X188364900Y-91540000D02*
X188364900Y-92723000D01*
X188404900Y-88301000D02*
X188404900Y-89460000D01*
X188404900Y-91540000D02*
X188404900Y-92699000D01*
X188444900Y-88325000D02*
X188444900Y-89460000D01*
X188444900Y-91540000D02*
X188444900Y-92675000D01*
X188484900Y-88351000D02*
X188484900Y-89460000D01*
X188484900Y-91540000D02*
X188484900Y-92649000D01*
X188524900Y-88378000D02*
X188524900Y-89460000D01*
X188524900Y-91540000D02*
X188524900Y-92622000D01*
X188564900Y-88406000D02*
X188564900Y-89460000D01*
X188564900Y-91540000D02*
X188564900Y-92594000D01*
X188604900Y-88435000D02*
X188604900Y-89460000D01*
X188604900Y-91540000D02*
X188604900Y-92565000D01*
X188644900Y-88465000D02*
X188644900Y-89460000D01*
X188644900Y-91540000D02*
X188644900Y-92535000D01*
X188684900Y-88497000D02*
X188684900Y-89460000D01*
X188684900Y-91540000D02*
X188684900Y-92503000D01*
X188724900Y-88530000D02*
X188724900Y-89460000D01*
X188724900Y-91540000D02*
X188724900Y-92470000D01*
X188764900Y-88564000D02*
X188764900Y-89460000D01*
X188764900Y-91540000D02*
X188764900Y-92436000D01*
X188804900Y-88599000D02*
X188804900Y-89460000D01*
X188804900Y-91540000D02*
X188804900Y-92401000D01*
X188844900Y-88636000D02*
X188844900Y-89460000D01*
X188844900Y-91540000D02*
X188844900Y-92364000D01*
X188884900Y-88675000D02*
X188884900Y-89460000D01*
X188884900Y-91540000D02*
X188884900Y-92325000D01*
X188924900Y-88715000D02*
X188924900Y-89460000D01*
X188924900Y-91540000D02*
X188924900Y-92285000D01*
X188964900Y-88757000D02*
X188964900Y-89460000D01*
X188964900Y-91540000D02*
X188964900Y-92243000D01*
X189004900Y-88801000D02*
X189004900Y-89460000D01*
X189004900Y-91540000D02*
X189004900Y-92199000D01*
X189044900Y-88848000D02*
X189044900Y-89460000D01*
X189044900Y-91540000D02*
X189044900Y-92152000D01*
X189084900Y-88896000D02*
X189084900Y-92104000D01*
X189124900Y-88947000D02*
X189124900Y-92053000D01*
X189164900Y-89001000D02*
X189164900Y-91999000D01*
X189204900Y-89057000D02*
X189204900Y-91943000D01*
X189244900Y-89117000D02*
X189244900Y-91883000D01*
X189284900Y-89181000D02*
X189284900Y-91819000D01*
X189324900Y-89249000D02*
X189324900Y-91751000D01*
X189364900Y-89323000D02*
X189364900Y-91677000D01*
X189404900Y-89402000D02*
X189404900Y-91598000D01*
X189444900Y-89489000D02*
X189444900Y-91511000D01*
X189484900Y-89586000D02*
X189484900Y-91414000D01*
X189524900Y-89695000D02*
X189524900Y-91305000D01*
X189564900Y-89823000D02*
X189564900Y-91177000D01*
X189604900Y-89983000D02*
X189604900Y-91017000D01*
X189644900Y-90217000D02*
X189644900Y-90783000D01*
X189664900Y-90500000D02*
G75*
G02*
X184424900Y-90500000I-2620000J0D01*
G01*
X184424900Y-90500000D02*
G75*
G02*
X189664900Y-90500000I2620000J0D01*
G01*
%TO.C,J2*%
X175120000Y-109120000D02*
X176500000Y-109120000D01*
X175120000Y-110500000D02*
X175120000Y-109120000D01*
X175120000Y-111770000D02*
X175120000Y-124580000D01*
X175120000Y-111770000D02*
X177880000Y-111770000D01*
X175120000Y-124580000D02*
X177880000Y-124580000D01*
X177880000Y-111770000D02*
X177880000Y-124580000D01*
%TO.C,C7*%
X188130000Y-112880000D02*
X188467000Y-112880000D01*
X188130000Y-118120000D02*
X188130000Y-112880000D01*
X188467000Y-118120000D02*
X188130000Y-118120000D01*
X190533000Y-112880000D02*
X190870000Y-112880000D01*
X190870000Y-112880000D02*
X190870000Y-118120000D01*
X190870000Y-118120000D02*
X190533000Y-118120000D01*
%TO.C,J3*%
X175120000Y-103730000D02*
X175120000Y-90920000D01*
X177880000Y-90920000D02*
X175120000Y-90920000D01*
X177880000Y-103730000D02*
X175120000Y-103730000D01*
X177880000Y-103730000D02*
X177880000Y-90920000D01*
X177880000Y-105000000D02*
X177880000Y-106380000D01*
X177880000Y-106380000D02*
X176500000Y-106380000D01*
%TO.C,C1*%
X180880000Y-71130000D02*
X186120000Y-71130000D01*
X180880000Y-71467000D02*
X180880000Y-71130000D01*
X180880000Y-73870000D02*
X180880000Y-73533000D01*
X186120000Y-71130000D02*
X186120000Y-71467000D01*
X186120000Y-73533000D02*
X186120000Y-73870000D01*
X186120000Y-73870000D02*
X180880000Y-73870000D01*
%TO.C,C13*%
X188130000Y-96380000D02*
X188467000Y-96380000D01*
X188130000Y-101620000D02*
X188130000Y-96380000D01*
X188467000Y-101620000D02*
X188130000Y-101620000D01*
X190533000Y-96380000D02*
X190870000Y-96380000D01*
X190870000Y-96380000D02*
X190870000Y-101620000D01*
X190870000Y-101620000D02*
X190533000Y-101620000D01*
%TO.C,U3*%
X181140000Y-95730000D02*
X185760000Y-95730000D01*
X181140000Y-105950000D02*
X181140000Y-95730000D01*
X184380000Y-95730000D02*
X184380000Y-105950000D01*
X185760000Y-95730000D02*
X185760000Y-105950000D01*
X185760000Y-98990000D02*
X184380000Y-98990000D01*
X185760000Y-102690000D02*
X184380000Y-102690000D01*
X185760000Y-105950000D02*
X181140000Y-105950000D01*
%TO.C,U2*%
X199940000Y-66940000D02*
X204060000Y-66940000D01*
X199940000Y-66995000D02*
X199940000Y-66940000D01*
X199940000Y-77060000D02*
X199940000Y-77005000D01*
X204060000Y-66940000D02*
X204060000Y-66995000D01*
X204060000Y-77005000D02*
X204060000Y-77060000D01*
X204060000Y-77060000D02*
X199940000Y-77060000D01*
X199400000Y-66990000D02*
X199160000Y-66660000D01*
X199640000Y-66660000D01*
X199400000Y-66990000D01*
G36*
X199400000Y-66990000D02*
G01*
X199160000Y-66660000D01*
X199640000Y-66660000D01*
X199400000Y-66990000D01*
G37*
%TD*%
M02*
