%TF.GenerationSoftware,KiCad,Pcbnew,10.0.2*%
%TF.CreationDate,2026-05-22T20:02:15+05:30*%
%TF.ProjectId,Devboard,44657662-6f61-4726-942e-6b696361645f,rev?*%
%TF.SameCoordinates,Original*%
%TF.FileFunction,Soldermask,Bot*%
%TF.FilePolarity,Negative*%
%FSLAX46Y46*%
G04 Gerber Fmt 4.6, Leading zero omitted, Abs format (unit mm)*
G04 Created by KiCad (PCBNEW 10.0.2) date 2026-05-22 20:02:15*
%MOMM*%
%LPD*%
G01*
G04 APERTURE LIST*
G04 Aperture macros list*
%AMRoundRect*
0 Rectangle with rounded corners*
0 $1 Rounding radius*
0 $2 $3 $4 $5 $6 $7 $8 $9 X,Y pos of 4 corners*
0 Add a 4 corners polygon primitive as box body*
4,1,4,$2,$3,$4,$5,$6,$7,$8,$9,$2,$3,0*
0 Add four circle primitives for the rounded corners*
1,1,$1+$1,$2,$3*
1,1,$1+$1,$4,$5*
1,1,$1+$1,$6,$7*
1,1,$1+$1,$8,$9*
0 Add four rect primitives between the rounded corners*
20,1,$1+$1,$2,$3,$4,$5,0*
20,1,$1+$1,$4,$5,$6,$7,0*
20,1,$1+$1,$6,$7,$8,$9,0*
20,1,$1+$1,$8,$9,$2,$3,0*%
G04 Aperture macros list end*
%ADD10C,1.600000*%
%ADD11C,2.000000*%
%ADD12RoundRect,0.250000X0.550000X0.550000X-0.550000X0.550000X-0.550000X-0.550000X0.550000X-0.550000X0*%
%ADD13C,1.500000*%
%ADD14R,1.700000X1.700000*%
%ADD15C,1.700000*%
%ADD16C,0.650000*%
%ADD17O,1.000000X2.100000*%
%ADD18O,1.000000X1.600000*%
%ADD19RoundRect,0.250000X-0.550000X-0.550000X0.550000X-0.550000X0.550000X0.550000X-0.550000X0.550000X0*%
%ADD20R,2.000000X1.905000*%
%ADD21O,2.000000X1.905000*%
G04 APERTURE END LIST*
D10*
%TO.C,R1*%
X192595000Y-67025000D03*
X184975000Y-67025000D03*
%TD*%
D11*
%TO.C,SW1*%
X199750000Y-56250000D03*
X206250000Y-56250000D03*
X199750000Y-60750000D03*
X206250000Y-60750000D03*
%TD*%
D10*
%TO.C,R2*%
X185690000Y-84000000D03*
X193310000Y-84000000D03*
%TD*%
%TO.C,C9*%
X182500000Y-59000000D03*
X182500000Y-64000000D03*
%TD*%
%TO.C,C2*%
X185500000Y-79500000D03*
X180500000Y-79500000D03*
%TD*%
%TO.C,C8*%
X184000000Y-122500000D03*
X189000000Y-122500000D03*
%TD*%
D12*
%TO.C,U1*%
X203500000Y-121120000D03*
D10*
X203500000Y-118580000D03*
X203500000Y-116040000D03*
X203500000Y-113500000D03*
X203500000Y-110960000D03*
X203500000Y-108420000D03*
X203500000Y-105880000D03*
X203500000Y-103340000D03*
X203500000Y-100800000D03*
X203500000Y-98260000D03*
X203500000Y-95720000D03*
X203500000Y-93180000D03*
X203500000Y-90640000D03*
X203500000Y-88100000D03*
X195880000Y-88100000D03*
X195880000Y-90640000D03*
X195880000Y-93180000D03*
X195880000Y-95720000D03*
X195880000Y-98260000D03*
X195880000Y-100800000D03*
X195880000Y-103340000D03*
X195880000Y-105880000D03*
X195880000Y-108420000D03*
X195880000Y-110960000D03*
X195880000Y-113500000D03*
X195880000Y-116040000D03*
X195880000Y-118580000D03*
X195880000Y-121120000D03*
%TD*%
%TO.C,C3*%
X182500000Y-89000000D03*
X182500000Y-94000000D03*
%TD*%
D13*
%TO.C,Y1*%
X190475000Y-73025000D03*
X190475000Y-77905000D03*
%TD*%
D10*
%TO.C,C14*%
X189500000Y-109000000D03*
X189500000Y-104000000D03*
%TD*%
D13*
%TO.C,Y2*%
X183500000Y-115300000D03*
X183500000Y-110420000D03*
%TD*%
D10*
%TO.C,C6*%
X197500000Y-83500000D03*
X202500000Y-83500000D03*
%TD*%
D14*
%TO.C,J1*%
X209500000Y-123620000D03*
D15*
X209500000Y-121080000D03*
X209500000Y-118540000D03*
X209500000Y-116000000D03*
X209500000Y-113460000D03*
X209500000Y-110920000D03*
X209500000Y-108380000D03*
X209500000Y-105840000D03*
X209500000Y-103300000D03*
X209500000Y-100760000D03*
X209500000Y-98220000D03*
X209500000Y-95680000D03*
X209500000Y-93140000D03*
X209500000Y-90600000D03*
%TD*%
D16*
%TO.C,P1*%
X194890000Y-59600000D03*
X189110000Y-59600000D03*
D17*
X196320000Y-60130000D03*
D18*
X196320000Y-55950000D03*
D17*
X187680000Y-60130000D03*
D18*
X187680000Y-55950000D03*
%TD*%
D19*
%TO.C,C15*%
X186044900Y-90500000D03*
D10*
X188044900Y-90500000D03*
%TD*%
D14*
%TO.C,J2*%
X176500000Y-110500000D03*
D15*
X176500000Y-113040000D03*
X176500000Y-115580000D03*
X176500000Y-118120000D03*
X176500000Y-120660000D03*
X176500000Y-123200000D03*
%TD*%
D10*
%TO.C,C7*%
X189500000Y-113000000D03*
X189500000Y-118000000D03*
%TD*%
D14*
%TO.C,J3*%
X176500000Y-105000000D03*
D15*
X176500000Y-102460000D03*
X176500000Y-99920000D03*
X176500000Y-97380000D03*
X176500000Y-94840000D03*
X176500000Y-92300000D03*
%TD*%
D10*
%TO.C,C1*%
X181000000Y-72500000D03*
X186000000Y-72500000D03*
%TD*%
%TO.C,C13*%
X189500000Y-96500000D03*
X189500000Y-101500000D03*
%TD*%
D20*
%TO.C,U3*%
X182500000Y-98300000D03*
D21*
X182500000Y-100840000D03*
X182500000Y-103380000D03*
%TD*%
M02*
